<svg id="Layer_1" data-name="Layer 1" xmlns="http://www.w3.org/2000/svg" viewBox="0 0 73.75 64.16"><defs><style>.cls-1{opacity:0.38;}.cls-2{fill:#f15a24;}</style></defs><title>randomLogo</title><g class="cls-1"><path class="cls-2" d="M45.06,58.33S69.82,36.54,47.9,11.67,2.29,5.94.3,29.49,5.8,73,40.33,60.1"/></g><path d="M22.6,31.59v-6a4.61,4.61,0,0,0-.31-2.35A1.49,1.49,0,0,0,21,22.55a1.68,1.68,0,0,0-1.5.81,3.91,3.91,0,0,0-.24,2v6.25H15.91V24.77c0-1.1-.15-1.58-.66-1.91a1.74,1.74,0,0,0-1-.29,1.57,1.57,0,0,0-1,.29A2.52,2.52,0,0,0,12.56,25v6.56H9.22V20.11h3.34l0,1.19a3.62,3.62,0,0,1,.57-.59,4.08,4.08,0,0,1,2.66-.9,4.71,4.71,0,0,1,2.29.55,5.3,5.3,0,0,1,.92.79,6.43,6.43,0,0,1,.81-.62,5.08,5.08,0,0,1,2.6-.73,3.72,3.72,0,0,1,2.95,1.25c.55.68.57,1.41.57,3.06v7.48Z"/><path d="M31,26.56a2.83,2.83,0,0,0,0,.68,2.51,2.51,0,0,0,2.58,2.18,3.18,3.18,0,0,0,1.1-.2,3.47,3.47,0,0,0,1.8-1.85L39,28.69a13.06,13.06,0,0,1-1,1.3,6.37,6.37,0,0,1-4.75,2,6.94,6.94,0,0,1-2.07-.31c-2.55-.79-3.74-3-3.74-5.63A6.89,6.89,0,0,1,29,21.58a5.42,5.42,0,0,1,4.42-1.83,5.38,5.38,0,0,1,4.49,2.09,8.44,8.44,0,0,1,1.28,4.71Zm3.46-4.16a2.25,2.25,0,0,0-1-.22,2.32,2.32,0,0,0-2.13,1.39,3.94,3.94,0,0,0-.26.88h4.69A2.29,2.29,0,0,0,34.41,22.4Z"/><path d="M50.43,30.6a6.37,6.37,0,0,1-4.16,1.34,6.82,6.82,0,0,1-4.51-1.65,6,6,0,0,1-1.65-4.47,6.38,6.38,0,0,1,1.34-4.09,6,6,0,0,1,5.28-2A6,6,0,0,1,50.34,21a6.17,6.17,0,0,1,2.11,4.84A6,6,0,0,1,50.43,30.6Zm-2.62-7.72a2.68,2.68,0,0,0-1.67-.44,2.86,2.86,0,0,0-1.28.33,3.38,3.38,0,0,0-1.34,3,4.53,4.53,0,0,0,.59,2.31,2.55,2.55,0,0,0,2.2,1.12C48.18,29.24,49,27.68,49,26S48.47,23.34,47.81,22.88Z"/><path d="M66.44,31.59H62.77l-1.69-7.66-1.72,7.66H55.64L52.49,20.11h3.56l1.61,8,1.74-8H63l1.58,8.1,1.78-8.1h3.5Z"/><path d="M18.13,48.79c-1,1.52-3.12,2.11-4.86,2.11a8.48,8.48,0,0,1-4.2-1.14A8.41,8.41,0,0,1,7.7,48.68l2.16-1.94a4.91,4.91,0,0,0,.62.55,4.65,4.65,0,0,0,2.73,1,3.91,3.91,0,0,0,.84-.11c.51-.11,1.19-.4,1.19-1,0-.79-1-.88-2.27-1.08-2.4-.4-3.5-.95-4.09-2.09a3.26,3.26,0,0,1-.35-1.43A3.55,3.55,0,0,1,9,40.87c.53-.95,1.83-2.13,4.38-2.13a8.57,8.57,0,0,1,4.16,1.1c.33.2.64.4.95.62l-2.09,1.94a6.21,6.21,0,0,0-.62-.44,4.88,4.88,0,0,0-2.27-.71,3.08,3.08,0,0,0-1.08.2.78.78,0,0,0-.53.68.71.71,0,0,0,.31.55,6.19,6.19,0,0,0,1.54.42l1.52.33c1.83.4,3.41,1.32,3.41,3.45A3.45,3.45,0,0,1,18.13,48.79Z"/><path d="M27.39,54.56l0-4.77a6.42,6.42,0,0,1-.62.44,4.59,4.59,0,0,1-6.43-2,6.46,6.46,0,0,1-.48-1.43A7.93,7.93,0,0,1,19.67,45a8,8,0,0,1,1.17-4.22,4.63,4.63,0,0,1,3.81-2,4.1,4.1,0,0,1,3.06,1.3v-1h3.08V54.56ZM25.63,41.24a2.14,2.14,0,0,0-2,.95A5.12,5.12,0,0,0,23,44.81a5.67,5.67,0,0,0,.2,1.47c.07.2.62,2,2.11,2,1.23,0,2.31-1.19,2.31-3.59C27.64,42.52,26.73,41.4,25.63,41.24Z"/><path d="M39.54,50.59V49.52A5.17,5.17,0,0,1,39,50a4.72,4.72,0,0,1-2.84.9,4.17,4.17,0,0,1-2.44-.7c-1.28-1-1.17-2.86-1.17-4.27V39.11H36v7.15c0,.73,0,1.28.64,1.65a2.06,2.06,0,0,0,2.79-.77,2.37,2.37,0,0,0,.13-.88V39.11h3.37V50.59Z"/><path d="M52.05,50.59v-1c-.24.18-.46.33-.7.48a4.94,4.94,0,0,1-2.82.86A3.5,3.5,0,0,1,45.15,49a3.67,3.67,0,0,1-.37-1.61,3.77,3.77,0,0,1,2.35-3.28A25.65,25.65,0,0,1,51.72,43v-.64A1.22,1.22,0,0,0,50.43,41a1.65,1.65,0,0,0-1.63.84,2,2,0,0,0-.15.51H45.26a3.38,3.38,0,0,1,.92-2.31,4.72,4.72,0,0,1,2.6-1.17,10.88,10.88,0,0,1,1.47-.09c1.61,0,3.78.37,4.55,2A2.83,2.83,0,0,1,55,42.1v6.71a2.8,2.8,0,0,0,.33,1.78Zm-2.51-4.77a3,3,0,0,0-.4.15c-.84.35-1.06.84-1.06,1.28a1.34,1.34,0,0,0,.13.53,1.29,1.29,0,0,0,1.17.64,2.38,2.38,0,0,0,1.3-.46c1-.7,1-1.78,1-2.86Z"/><path d="M64.68,50.59l0-1.08a5.72,5.72,0,0,1-.66.59,4.09,4.09,0,0,1-2.44.79,4.75,4.75,0,0,1-3.83-2,6.4,6.4,0,0,1-1.08-4c0-.66,0-3.65,2.18-5.26a4.23,4.23,0,0,1,2.62-.86,4.58,4.58,0,0,1,3,1.17V35.06h3.3V50.59ZM64,42.21a1.83,1.83,0,0,0-1.8-.86,2.11,2.11,0,0,0-1.5,1,4.78,4.78,0,0,0-.59,2.53,5.27,5.27,0,0,0,.64,2.71,1.79,1.79,0,0,0,1.54.84A2,2,0,0,0,63.45,48c1.17-.92,1.1-2.84,1.1-3.12A4.92,4.92,0,0,0,64,42.21Z"/></svg>